<svg xmlns="http://www.w3.org/2000/svg" width="252" height="252" viewBox="0 0 252 252"><path fill="#fff" d="M125.8 0a126 126 0 1 0 126 126 126 126 0 0 0-126-126zm71.7 78.9l21.8-12.6a5 5 0 0 1 5.1 8.7l-21.9 12.6a4.9 4.9 0 0 1-6.8-1.8 5.1 5.1 0 0 1 1.8-6.9zm-76.7-63.7a5 5 0 1 1 10 0v25.2a5 5 0 0 1-10 0zm-53 10.5a5 5 0 0 1 6.9 1.8l12.6 21.8a5 5 0 1 1-8.7 5.1L66 32.5a4.9 4.9 0 0 1 1.8-6.8zM9.9 126a5 5 0 0 1 5-5h25.2a5.1 5.1 0 1 1 0 10.1H14.9a5 5 0 0 1-5-5.1zm44.2 47.2l-21.8 12.6a5 5 0 1 1-5.1-8.7l21.9-12.6a5 5 0 1 1 5 8.7zM56 85.7a5.1 5.1 0 0 1-6.9 1.9L27.3 75a5.1 5.1 0 0 1 5-8.8l21.8 12.6a5.1 5.1 0 0 1 1.9 6.9zm31.3 117.1l-12.6 21.8a5 5 0 1 1-8.7-5.1l12.6-21.8a5 5 0 1 1 8.7 5.1zm43.5 34.1a5.1 5.1 0 1 1-10.1 0v-25.2a5 5 0 0 1 5.1-5 5 5 0 0 1 5 5zm52.9-10.4a5.1 5.1 0 0 1-6.9-1.9l-12.5-21.8a5 5 0 1 1 8.7-5.1l12.6 21.9a5.1 5.1 0 0 1-1.9 6.9zm2-193.9l-12.6 21.8a5.1 5.1 0 0 1-8.8-5.1l12.6-21.8a5.1 5.1 0 0 1 8.8 5.1zm40.5 151.5a5.1 5.1 0 0 1-6.9 1.8l-21.8-12.6a5 5 0 1 1 5-8.7l21.8 12.6a5.1 5.1 0 0 1 1.9 6.9zm10.5-53h-25.2a5 5 0 0 1-5.1-5 5.1 5.1 0 0 1 5.1-5.1h25.2a5 5 0 0 1 0 10z"/></svg>